<svg width="14" height="7" viewBox="0 0 14 7" fill="none" xmlns="http://www.w3.org/2000/svg">
<path d="M0.546865 4.00776L12.1285 4.00775L10.21 5.78063C9.99591 5.97847 9.99509 6.29999 10.2081 6.49878C10.4212 6.69759 10.7675 6.69832 10.9816 6.5005L13.8391 3.85988C13.8393 3.85973 13.8394 3.85955 13.8396 3.8594C14.0531 3.66155 14.0538 3.33899 13.8396 3.14049C13.8395 3.14033 13.8393 3.14016 13.8392 3.14001L10.9816 0.499382C10.7676 0.301589 10.4213 0.302275 10.2082 0.501109C9.99514 0.699891 9.99596 1.02141 10.21 1.21926L12.1285 2.99213L0.546865 2.99213C0.244826 2.99213 -9.83651e-06 3.21948 -9.81199e-06 3.49994C-9.78747e-06 3.78041 0.244826 4.00776 0.546865 4.00776Z" fill="#252525"/>
</svg>
