<svg width="14" height="7" viewBox="0 0 14 7" fill="none" xmlns="http://www.w3.org/2000/svg">
<path d="M13.4531 2.99219L1.87147 2.99218L3.79002 1.21931C4.00409 1.02147 4.00491 0.699946 3.79185 0.501163C3.57879 0.302354 3.23251 0.301618 3.01843 0.499436L0.1609 3.14006C0.160709 3.14021 0.160572 3.14039 0.160408 3.14054C-0.0531191 3.33839 -0.0538027 3.66095 0.160353 3.85945C0.160545 3.8596 0.160682 3.85978 0.160846 3.85993L3.01838 6.50056C3.23242 6.69835 3.5787 6.69767 3.79179 6.49883C4.00486 6.30005 4.00404 5.97853 3.78996 5.78068L1.87147 4.00781L13.4531 4.00781C13.7552 4.00781 14 3.78046 14 3.5C14 3.21953 13.7552 2.99219 13.4531 2.99219Z" fill="#F2C26B"/>
</svg>
