<svg width="36" height="36" viewBox="0 0 36 36" fill="none" xmlns="http://www.w3.org/2000/svg">
<circle opacity="0.2" cx="18" cy="18" r="18" fill="#C4C4C4"/>
<path d="M21.2103 12H14.7897C12.7 12 11 13.5786 11 15.519V21.4811C11 23.4214 12.7 25 14.7897 25H21.2104C23.3 25 25 23.4214 25 21.4811V15.519C25 13.5786 23.3 12 21.2103 12V12ZM18 22.0546C15.8892 22.0546 14.172 20.46 14.172 18.5C14.172 16.54 15.8892 14.9454 18 14.9454C20.1108 14.9454 21.828 16.54 21.828 18.5C21.828 20.46 20.1108 22.0546 18 22.0546ZM21.9195 15.7837C21.2958 15.7837 20.7884 15.3126 20.7884 14.7334C20.7884 14.1541 21.2958 13.6829 21.9195 13.6829C22.5433 13.6829 23.0508 14.1541 23.0508 14.7334C23.0508 15.3126 22.5433 15.7837 21.9195 15.7837Z" fill="white"/>
<path d="M17.9999 15.7074C16.3418 15.7074 14.9927 16.9601 14.9927 18.4999C14.9927 20.0396 16.3418 21.2923 17.9999 21.2923C19.6582 21.2923 21.0072 20.0396 21.0072 18.4999C21.0072 16.9601 19.6582 15.7074 17.9999 15.7074Z" fill="white"/>
<path d="M21.9193 14.4452C21.7482 14.4452 21.6089 14.5745 21.6089 14.7334C21.6089 14.8923 21.7482 15.0216 21.9193 15.0216C22.0905 15.0216 22.2298 14.8924 22.2298 14.7334C22.2298 14.5744 22.0905 14.4452 21.9193 14.4452Z" fill="white"/>
</svg>
