<svg width="18" height="18" viewBox="0 0 18 18" fill="none" xmlns="http://www.w3.org/2000/svg">
<circle cx="9" cy="9" r="9" fill="#F2C26B"/>
<path fill-rule="evenodd" clip-rule="evenodd" d="M9.04395 12.6563C8.73329 12.6563 8.48145 12.4044 8.48145 12.0938L8.48144 5.625C8.48144 5.31434 8.73328 5.0625 9.04394 5.0625C9.3546 5.0625 9.60644 5.31434 9.60644 5.625L9.60645 12.0938C9.60645 12.4044 9.35461 12.6563 9.04395 12.6563Z" fill="white"/>
<path fill-rule="evenodd" clip-rule="evenodd" d="M12.8408 8.85938C12.8408 9.17004 12.589 9.42188 12.2783 9.42188L5.80957 9.42188C5.49891 9.42188 5.24707 9.17004 5.24707 8.85938C5.24707 8.54872 5.49891 8.29688 5.80957 8.29688L12.2783 8.29688C12.589 8.29688 12.8408 8.54871 12.8408 8.85938Z" fill="white"/>
</svg>
