<svg width="17" height="17" viewBox="0 0 17 17" fill="none" xmlns="http://www.w3.org/2000/svg">
<path d="M0 0V17H8.99805V10.9902H15.5059C16.3297 10.9902 17 10.3199 17 9.49609V0C15.3625 0 1.65199 0 0 0ZM4.01758 16.0039H0.996094V0.996094H4.01758V16.0039ZM12.0195 0.996094V6.00977H8.99805V0.996094H12.0195ZM5.01367 16.0039V0.996094H8.00195V6.00977H6.00977V8.5C6.00977 9.70258 6.86669 10.7088 8.00195 10.9402V16.0039H5.01367ZM13.0156 0.996094H16.0039V9.49609C16.0039 9.77067 15.7804 9.99414 15.5059 9.99414C15.2313 9.99414 15.0078 9.77067 15.0078 9.49609V6.00977H13.0156V0.996094ZM14.0117 7.00586V9.49609C14.0117 9.67067 14.0418 9.83824 14.0971 9.99414H8.5C7.67615 9.99414 7.00586 9.32385 7.00586 8.5V7.00586H14.0117Z" fill="#ECAF44"/>
</svg>
