<svg width="155" height="208" viewBox="0 0 155 208" fill="none" xmlns="http://www.w3.org/2000/svg">
<path d="M62.784 135.072C62.784 125.088 64.992 116.832 69.408 110.304C74.016 103.776 80.64 96.576 89.28 88.704C95.616 82.944 100.224 78.144 103.104 74.304C106.176 70.272 107.712 65.76 107.712 60.768C107.712 53.664 104.832 48.096 99.072 44.064C93.504 39.84 86.016 37.728 76.608 37.728C67.584 37.728 59.52 39.648 52.416 43.488C45.504 47.136 39.648 52.32 34.848 59.04L0 38.592C8.064 26.304 18.912 16.8 32.544 10.08C46.368 3.36 62.688 0 81.504 0C103.584 0 121.248 4.704 134.496 14.112C147.936 23.52 154.656 36.576 154.656 53.28C154.656 61.152 153.312 68.064 150.624 74.016C148.128 79.968 144.96 85.056 141.12 89.28C137.472 93.312 132.672 98.016 126.72 103.392C119.616 109.728 114.432 115.104 111.168 119.52C107.904 123.744 106.272 128.928 106.272 135.072H62.784ZM84.672 207.36C76.8 207.36 70.176 204.864 64.8 199.872C59.616 194.688 57.024 188.448 57.024 181.152C57.024 173.856 59.616 167.808 64.8 163.008C69.984 158.016 76.608 155.52 84.672 155.52C92.736 155.52 99.36 158.016 104.544 163.008C109.728 167.808 112.32 173.856 112.32 181.152C112.32 188.448 109.632 194.688 104.256 199.872C99.072 204.864 92.544 207.36 84.672 207.36Z" fill="#FFC876" fill-opacity="0.87"/>
</svg>
