<svg width="28" height="23" viewBox="0 0 28 23" fill="none" xmlns="http://www.w3.org/2000/svg">
<path d="M11.952 0.511997L7.728 15.872L6.32 10.112C8.15467 10.112 9.648 10.6453 10.8 11.712C11.952 12.7787 12.528 14.2507 12.528 16.128C12.528 17.9627 11.9307 19.456 10.736 20.608C9.584 21.7173 8.13333 22.272 6.384 22.272C4.592 22.272 3.09867 21.7173 1.904 20.608C0.752 19.456 0.176 17.9627 0.176 16.128C0.176 15.5733 0.218667 15.04 0.304 14.528C0.389333 13.9733 0.56 13.3333 0.816 12.608C1.072 11.8827 1.43467 10.9227 1.904 9.728L5.616 0.511997H11.952ZM27.056 0.511997L22.832 15.872L21.424 10.112C23.2587 10.112 24.752 10.6453 25.904 11.712C27.056 12.7787 27.632 14.2507 27.632 16.128C27.632 17.9627 27.0347 19.456 25.84 20.608C24.688 21.7173 23.2373 22.272 21.488 22.272C19.696 22.272 18.2027 21.7173 17.008 20.608C15.856 19.456 15.28 17.9627 15.28 16.128C15.28 15.5733 15.3227 15.04 15.408 14.528C15.4933 13.9733 15.664 13.3333 15.92 12.608C16.176 11.8827 16.5387 10.9227 17.008 9.728L20.72 0.511997H27.056Z" fill="#F2C26B"/>
</svg>
