<svg width="229" height="229" viewBox="0 0 229 229" fill="none" xmlns="http://www.w3.org/2000/svg">
<path opacity="0.5" d="M94.1647 31.366L94.5977 31.116L94.3477 30.683L93.9147 30.933L94.1647 31.366ZM52.5955 55.366L52.3455 54.933L51.9125 55.183L52.1625 55.616L52.5955 55.366ZM122.665 80.7295L122.915 81.1625L123.348 80.9125L123.098 80.4795L122.665 80.7295ZM81.0955 104.729L80.6625 104.979L80.9125 105.412L81.3455 105.162L81.0955 104.729ZM80.2295 105.229L80.4795 105.662L80.9125 105.412L80.6625 104.979L80.2295 105.229ZM51.2295 55L50.9795 54.567L50.5465 54.817L50.7965 55.25L51.2295 55ZM93.6647 30.5L93.9147 30.933L93.6647 30.5ZM94.5307 30L94.9638 29.75L94.7138 29.317L94.2807 29.567L94.5307 30ZM95.0307 30.866L95.4638 30.616L95.0307 30.866ZM123.531 80.2295L123.098 80.4795L123.348 80.9125L123.781 80.6625L123.531 80.2295ZM172.894 51.7295L172.644 51.2965L172.894 51.7295ZM173.76 51.2295L174.193 50.9795L173.943 50.5465L173.51 50.7965L173.76 51.2295ZM198.76 94.5307L199.01 94.9637L199.443 94.7137L199.193 94.2807L198.76 94.5307ZM197.894 95.0307L197.644 94.5977L197.894 95.0307ZM148.531 123.531L148.281 123.098L147.848 123.348L148.098 123.781L148.531 123.531ZM177.031 172.894L177.464 172.644L177.031 172.894ZM177.531 173.76L177.781 174.193L178.214 173.943L177.964 173.51L177.531 173.76ZM135.096 198.26L134.846 197.827L135.096 198.26ZM134.229 198.76L133.796 199.01L134.046 199.443L134.479 199.193L134.229 198.76ZM133.729 197.894L134.162 197.644L133.729 197.894ZM105.229 148.531L105.662 148.281L105.412 147.848L104.979 148.098L105.229 148.531ZM55.866 177.031L55.616 176.598L55.866 177.031ZM55 177.531L54.567 177.781L54.817 178.214L55.25 177.964L55 177.531ZM54.5 176.665L54.933 176.415L54.5 176.665ZM30.5 135.095L30.067 135.345L30.5 135.095ZM30 134.229L29.75 133.796L29.317 134.046L29.567 134.479L30 134.229ZM30.866 133.729L31.116 134.162L30.866 133.729ZM55.366 176.165L54.933 176.415L55.183 176.848L55.616 176.598L55.366 176.165ZM104.729 147.665L104.979 148.098L105.412 147.848L105.162 147.415L104.729 147.665ZM31.366 134.595L31.116 134.162L30.683 134.412L30.933 134.845L31.366 134.595ZM80.7295 106.095L81.1625 105.845L80.9125 105.412L80.4795 105.662L80.7295 106.095ZM81.5955 105.595L81.3455 105.162L80.9125 105.412L81.1625 105.845L81.5955 105.595ZM105.596 147.165L105.162 147.415L105.412 147.848L105.846 147.598L105.596 147.165ZM123.165 81.5955L123.598 81.3455L123.348 80.9125L122.915 81.1625L123.165 81.5955ZM147.165 123.165L147.415 123.598L147.848 123.348L147.598 122.915L147.165 123.165ZM106.096 148.031L105.846 147.598L105.412 147.848L105.662 148.281L106.096 148.031ZM134.596 197.394L134.162 197.644L134.412 198.077L134.846 197.827L134.596 197.394ZM176.165 173.394L176.415 173.827L176.848 173.577L176.598 173.144L176.165 173.394ZM147.665 124.031L148.098 123.781L147.848 123.348L147.415 123.598L147.665 124.031ZM148.031 122.665L147.598 122.915L147.848 123.348L148.281 123.098L148.031 122.665ZM197.394 94.1647L197.644 94.5977L198.077 94.3477L197.827 93.9147L197.394 94.1647ZM173.394 52.5955L173.827 52.3455L173.577 51.9125L173.144 52.1625L173.394 52.5955ZM124.031 81.0955L123.781 80.6625L123.348 80.9125L123.598 81.3455L124.031 81.0955ZM93.9147 30.933L52.3455 54.933L52.8455 55.799L94.4147 31.799L93.9147 30.933ZM123.098 80.4795L94.5977 31.116L93.7317 31.616L122.232 80.9795L123.098 80.4795ZM122.415 80.2965L80.8455 104.296L81.3455 105.162L122.915 81.1625L122.415 80.2965ZM52.1625 55.616L80.6625 104.979L81.5285 104.479L53.0285 55.116L52.1625 55.616ZM51.2965 56.116L79.7965 105.479L80.6625 104.979L52.1625 55.616L51.2965 56.116ZM50.7965 55.25L51.2965 56.116L52.1625 55.616L51.6625 54.75L50.7965 55.25ZM51.8455 54.067L50.9795 54.567L51.4795 55.433L52.3455 54.933L51.8455 54.067ZM93.4147 30.067L51.8455 54.067L52.3455 54.933L93.9147 30.933L93.4147 30.067ZM94.2807 29.567L93.4147 30.067L93.9147 30.933L94.7807 30.433L94.2807 29.567ZM95.4638 30.616L94.9638 29.75L94.0977 30.25L94.5977 31.116L95.4638 30.616ZM123.964 79.9795L95.4638 30.616L94.5977 31.116L123.098 80.4795L123.964 79.9795ZM172.644 51.2965L123.281 79.7965L123.781 80.6625L173.144 52.1625L172.644 51.2965ZM173.51 50.7965L172.644 51.2965L173.144 52.1625L174.01 51.6625L173.51 50.7965ZM174.693 51.8455L174.193 50.9795L173.327 51.4795L173.827 52.3455L174.693 51.8455ZM198.693 93.4147L174.693 51.8455L173.827 52.3455L197.827 93.9147L198.693 93.4147ZM199.193 94.2807L198.693 93.4147L197.827 93.9147L198.327 94.7807L199.193 94.2807ZM198.144 95.4637L199.01 94.9637L198.51 94.0977L197.644 94.5977L198.144 95.4637ZM148.781 123.964L198.144 95.4637L197.644 94.5977L148.281 123.098L148.781 123.964ZM177.464 172.644L148.964 123.281L148.098 123.781L176.598 173.144L177.464 172.644ZM177.964 173.51L177.464 172.644L176.598 173.144L177.098 174.01L177.964 173.51ZM176.915 174.693L177.781 174.193L177.281 173.327L176.415 173.827L176.915 174.693ZM135.346 198.693L176.915 174.693L176.415 173.827L134.846 197.827L135.346 198.693ZM134.479 199.193L135.346 198.693L134.846 197.827L133.979 198.327L134.479 199.193ZM133.296 198.144L133.796 199.01L134.662 198.51L134.162 197.644L133.296 198.144ZM104.796 148.781L133.296 198.144L134.162 197.644L105.662 148.281L104.796 148.781ZM56.116 177.464L105.479 148.964L104.979 148.098L55.616 176.598L56.116 177.464ZM55.25 177.964L56.116 177.464L55.616 176.598L54.75 177.098L55.25 177.964ZM54.067 176.915L54.567 177.781L55.433 177.281L54.933 176.415L54.067 176.915ZM30.067 135.345L54.067 176.915L54.933 176.415L30.933 134.845L30.067 135.345ZM29.567 134.479L30.067 135.345L30.933 134.845L30.433 133.979L29.567 134.479ZM30.616 133.296L29.75 133.796L30.25 134.662L31.116 134.162L30.616 133.296ZM79.9795 104.796L30.616 133.296L31.116 134.162L80.4795 105.662L79.9795 104.796ZM55.616 176.598L104.979 148.098L104.479 147.232L55.116 175.732L55.616 176.598ZM30.933 134.845L54.933 176.415L55.799 175.915L31.799 134.345L30.933 134.845ZM80.4795 105.662L31.116 134.162L31.616 135.029L80.9795 106.529L80.4795 105.662ZM80.2965 106.345L104.296 147.915L105.162 147.415L81.1625 105.845L80.2965 106.345ZM81.1625 105.845L105.162 147.415L106.029 146.915L82.0285 105.345L81.1625 105.845ZM122.915 81.1625L81.3455 105.162L81.8455 106.029L123.415 82.0285L122.915 81.1625ZM147.598 122.915L123.598 81.3455L122.732 81.8455L146.732 123.415L147.598 122.915ZM105.846 147.598L147.415 123.598L146.915 122.732L105.346 146.732L105.846 147.598ZM105.662 148.281L134.162 197.644L135.029 197.144L106.529 147.781L105.662 148.281ZM134.846 197.827L176.415 173.827L175.915 172.961L134.346 196.961L134.846 197.827ZM176.598 173.144L148.098 123.781L147.232 124.281L175.732 173.644L176.598 173.144ZM106.346 148.464L147.915 124.464L147.415 123.598L105.846 147.598L106.346 148.464ZM148.281 123.098L197.644 94.5977L197.144 93.7317L147.781 122.232L148.281 123.098ZM197.827 93.9147L173.827 52.3455L172.961 52.8455L196.961 94.4147L197.827 93.9147ZM173.144 52.1625L123.781 80.6625L124.281 81.5285L173.644 53.0285L173.144 52.1625ZM148.464 122.415L124.464 80.8455L123.598 81.3455L147.598 122.915L148.464 122.415Z" fill="black" fill-opacity="0.17"/>
</svg>
