<?xml version="1.0" standalone="no"?>
<!DOCTYPE svg PUBLIC "-//W3C//DTD SVG 20010904//EN"
 "http://www.w3.org/TR/2001/REC-SVG-20010904/DTD/svg10.dtd">
<svg version="1.0" xmlns="http://www.w3.org/2000/svg"
 width="432.000000pt" height="432.000000pt" viewBox="0 0 432.000000 432.000000"
 preserveAspectRatio="xMidYMid meet">
<metadata>
Created by potrace 1.14, written by Peter Selinger 2001-2017
</metadata>
<g transform="translate(0.000000,432.000000) scale(0.100000,-0.100000)"
fill="#000000" stroke="none">
<path d="M20 3230 c0 -3 28 -20 63 -39 107 -59 216 -190 265 -321 25 -66 81
-236 85 -260 3 -14 12 -52 20 -85 17 -64 73 -344 82 -410 4 -22 8 -47 10 -55
3 -8 7 -33 10 -55 28 -186 92 -432 144 -555 88 -208 184 -308 331 -344 67 -17
1116 -13 1138 4 1 2 7 4 12 5 6 1 13 4 18 5 4 1 10 2 15 1 4 0 7 4 7 11 0 6 3
8 7 5 3 -4 17 3 30 15 13 12 23 19 23 15 0 -4 22 15 48 41 27 26 47 50 46 53
-2 4 3 10 12 13 8 3 12 10 9 16 -3 5 -1 10 4 10 6 0 11 7 11 15 0 8 5 15 11
15 5 0 8 4 5 9 -4 5 -2 11 3 13 5 1 11 10 13 18 2 8 10 21 18 28 8 8 9 11 2 7
-7 -4 -5 8 7 28 11 19 17 38 14 41 -4 3 0 6 7 6 7 0 10 3 7 7 -4 3 -2 11 3 18
5 6 11 20 13 31 2 10 11 42 20 69 9 28 19 61 21 75 3 14 5 26 7 28 5 6 23 106
21 115 -1 4 2 7 6 7 4 0 8 10 9 23 0 12 3 36 7 52 19 81 25 135 19 152 -2 6
-16 14 -30 18 -35 8 -821 9 -855 0 -16 -4 -28 -13 -28 -20 0 -7 -5 -15 -10
-17 -6 -2 -12 -13 -15 -26 -3 -12 -7 -32 -10 -44 -2 -12 -7 -39 -10 -59 -3
-20 -9 -50 -14 -67 -5 -17 -7 -33 -3 -36 3 -3 1 -6 -5 -6 -5 0 -10 -7 -11 -15
-1 -8 -3 -22 -4 -30 -1 -8 -5 -15 -10 -15 -5 0 -7 -4 -4 -9 3 -5 -1 -14 -9
-21 -30 -25 -56 69 -131 485 -128 714 -252 967 -501 1026 -48 12 -953 20 -953
9z"/>
<path d="M3095 3233 c-11 -1 -202 -4 -425 -6 -390 -4 -443 -7 -480 -27 -10 -5
-20 -6 -24 -3 -3 3 -6 1 -6 -6 0 -7 -4 -9 -10 -6 -5 3 -10 1 -10 -5 0 -6 -4
-8 -10 -5 -5 3 -10 1 -10 -5 0 -6 -4 -9 -9 -5 -6 3 -15 -4 -21 -16 -7 -11 -14
-19 -16 -16 -7 6 -64 -49 -64 -62 0 -5 -3 -11 -8 -13 -4 -1 -24 -27 -45 -57
-21 -29 -33 -50 -25 -45 7 4 5 -1 -4 -12 -9 -10 -20 -31 -23 -46 -4 -16 -11
-28 -17 -28 -5 0 -6 -4 -3 -10 3 -5 -1 -20 -9 -33 -9 -12 -18 -34 -20 -47 -2
-14 -5 -25 -6 -25 -1 0 -3 -8 -5 -18 -2 -10 -7 -26 -11 -35 -9 -20 -14 -40
-19 -67 -2 -11 -4 -21 -5 -22 -3 -3 -4 -6 -13 -53 -14 -68 -24 -114 -27 -117
-2 -2 -4 -12 -5 -23 -1 -11 -3 -21 -4 -22 -3 -4 -12 -59 -14 -80 -1 -10 -4
-18 -7 -18 -11 0 -5 -64 7 -85 11 -19 22 -20 442 -21 237 0 431 4 431 9 0 4 5
5 10 2 6 -3 10 -1 10 5 0 6 5 8 12 4 6 -4 8 -3 5 3 -4 6 0 16 8 23 8 7 12 16
9 21 -3 5 -1 9 4 9 5 0 10 12 10 28 0 15 3 47 7 72 3 25 6 53 6 62 0 10 5 20
10 23 5 4 7 11 3 16 -3 5 -1 15 4 22 5 7 8 20 7 29 -2 10 1 20 6 24 5 3 7 10
4 15 -4 5 -1 9 5 9 6 0 9 4 5 9 -3 5 -1 12 5 16 6 4 8 11 5 16 -4 5 -1 9 5 9
20 0 61 -108 81 -213 11 -56 31 -160 45 -232 13 -71 27 -141 29 -155 5 -25 33
-167 41 -206 42 -209 123 -423 209 -554 56 -84 100 -119 197 -158 32 -13 958
-17 943 -4 -6 4 -32 25 -60 47 -130 101 -197 207 -269 433 -47 144 -67 235
-132 582 -19 99 -70 342 -89 425 -75 319 -199 540 -342 611 -51 25 -73 29
-178 34 -66 3 -129 4 -140 3z"/>
</g>
</svg>
